<svg viewBox="0 0 20 21.57" fill="none" xmlns="http://www.w3.org/2000/svg" xmlns:xlink="http://www.w3.org/1999/xlink" x="0" y="0"><g id="Icon_2">
<path d="M14.5,7.16h-9c-0.414,0 -0.75,0.336 -0.75,0.75c0,0.414 0.336,0.75 0.75,0.75h9c0.414,0 0.75,-0.336 0.75,-0.75c0,-0.414 -0.336,-0.75 -0.75,-0.75z" fill="currentColor"/>
<path fill-rule="evenodd" clip-rule="evenodd" d="M14.89,2.57h0.11c2.761,0 5,2.239 5,5v9c0,2.761 -2.239,5 -5,5h-10c-1.326,0 -2.598,-0.527 -3.536,-1.464c-0.937,-0.938 -1.464,-2.21 -1.464,-3.536v-9c0,-2.761 2.239,-5 5,-5h0.09v-1.82c0,-0.414 0.336,-0.75 0.75,-0.75c0.414,0 0.75,0.336 0.75,0.75v1.82h6.8v-1.82c0,-0.414 0.336,-0.75 0.75,-0.75c0.414,0 0.75,0.336 0.75,0.75zM15,20.07c1.933,0 3.5,-1.567 3.5,-3.5v-9c0,-1.933 -1.567,-3.5 -3.5,-3.5h-10c-1.933,0 -3.5,1.567 -3.5,3.5v9c0,1.933 1.567,3.5 3.5,3.5z" fill="currentColor"/>
</g></svg>