<svg viewBox="0 0 28 28" fill="none" xmlns="http://www.w3.org/2000/svg" xmlns:xlink="http://www.w3.org/1999/xlink" x="0" y="0"><g id="📷️ 카메라">
<path id="Vector" d="M9.5644,4.542c0,-0.464 -0.3759,-0.84 -0.84,-0.84h-3.2389c-0.4641,0 -0.84,0.376 -0.84,0.84v0.73h4.9189z" fill="#8595AA"/>
<path id="Vector_2" d="M14.0008,10.803c-2.4668,0 -4.4744,2.007 -4.4744,4.475c0,2.467 2.0069,4.474 4.4744,4.474c2.4675,0 4.4744,-2.007 4.4744,-4.474c0,-2.467 -2.0069,-4.475 -4.4744,-4.475zM14.0008,17.517c-1.2348,0 -2.2393,-1.005 -2.2393,-2.24c0,-0.297 0.0609,-0.579 0.1666,-0.839c-0.2352,-0.163 -0.3997,-0.422 -0.3997,-0.73c0,-0.498 0.4053,-0.904 0.9037,-0.904c0.3073,0 0.5663,0.164 0.7294,0.4c0.2597,-0.106 0.5425,-0.167 0.8393,-0.167c1.2348,0 2.24,1.005 2.24,2.24c0,1.235 -1.0045,2.24 -2.24,2.24z" fill="#333D4B"/>
<g id="Group">
<path id="Vector_3" d="M23.5904,5.272h-19.18c-1.5463,0 -2.8,1.254 -2.8,2.8v14.095c0,1.54 1.26,2.8 2.8,2.8h19.18c1.5463,0 2.8,-1.254 2.8,-2.8v-14.095c0,-1.546 -1.2537,-2.8 -2.8,-2.8zM14.0004,20.801c-3.0464,0 -5.5244,-2.478 -5.5244,-5.523c0,-3.046 2.478,-5.526 5.5244,-5.526c3.0464,0 5.5244,2.479 5.5244,5.526c0,3.046 -2.478,5.523 -5.5244,5.523zM21.0067,10.739c-0.7616,0 -1.379,-0.618 -1.379,-1.379c0,-0.762 0.6174,-1.379 1.379,-1.379c0.7616,0 1.379,0.617 1.379,1.379c0,0.761 -0.6174,1.379 -1.379,1.379z" fill="#4E5968"/>
<path id="Vector_4" d="M13.9998,13.036c-0.2968,0 -0.5796,0.061 -0.8393,0.167c0.1015,0.146 0.1743,0.313 0.1743,0.504c0,0.499 -0.4053,0.904 -0.9037,0.904c-0.1911,0 -0.3584,-0.073 -0.5047,-0.174c-0.1057,0.26 -0.1666,0.542 -0.1666,0.839c0,1.235 1.0045,2.24 2.2393,2.24c1.2348,0 2.24,-1.005 2.24,-2.24c0,-1.235 -1.0038,-2.24 -2.2393,-2.24z" fill="#4E5968"/>
</g>
<path id="Vector_5" d="M13.3348,13.707c0,-0.191 -0.0728,-0.358 -0.1743,-0.505c-0.1631,-0.235 -0.4221,-0.399 -0.7294,-0.399c-0.4984,0 -0.9037,0.405 -0.9037,0.904c0,0.307 0.1645,0.566 0.3997,0.73c0.1463,0.101 0.3136,0.174 0.5047,0.174c0.4984,0 0.9037,-0.405 0.9037,-0.904z" fill="white"/>
<path id="Vector_6" d="M14,9.752c-3.0464,0 -5.5244,2.479 -5.5244,5.525c0,3.046 2.478,5.524 5.5244,5.524c3.0464,0 5.5244,-2.478 5.5244,-5.524c0,-3.046 -2.478,-5.525 -5.5244,-5.525zM14,19.75c-2.4668,0 -4.4744,-2.007 -4.4744,-4.474c0,-2.466 2.0069,-4.475 4.4744,-4.475c2.4675,0 4.4744,2.008 4.4744,4.475c0,2.468 -2.0069,4.474 -4.4744,4.474z" fill="#D0D6DE"/>
<path id="Vector_7" d="M21.0069,7.979c-0.7616,0 -1.379,0.618 -1.379,1.379c0,0.762 0.6174,1.379 1.379,1.379c0.7616,0 1.379,-0.617 1.379,-1.379c0,-0.761 -0.6174,-1.379 -1.379,-1.379z" fill="#FFE63B"/>
</g></svg>