<svg viewBox="0 0 18 18" fill="none" xmlns="http://www.w3.org/2000/svg" xmlns:xlink="http://www.w3.org/1999/xlink" x="0" y="0"><path id="Shape" d="M3.25,0c-1.7949,0 -3.25,1.455 -3.25,3.25v11.5c0,1.795 1.4551,3.25 3.25,3.25h11.5c1.7949,0 3.25,-1.455 3.25,-3.25v-11.5c0,-1.795 -1.4551,-3.25 -3.25,-3.25zM14.28,6.281l-6.7537,6.746c-0.293,0.292 -0.7676,0.292 -1.0604,-0.001l-2.7458,-2.746c-0.2928,-0.293 -0.2928,-0.767 0.0001,-1.06c0.2929,-0.293 0.7678,-0.293 1.0606,0l2.2158,2.216l6.2234,-6.217c0.293,-0.292 0.7679,-0.292 1.0606,0.001c0.2928,0.293 0.2925,0.768 -0.0006,1.061z" fill="currentColor" fill-opacity="0.4"/></svg>