<svg viewBox="0 0 16 16" fill="none" xmlns="http://www.w3.org/2000/svg" x="0" y="0"><path id="Icon" d="M9.0369,8.0072l6.7515,-6.7288c0.2821,-0.2847 0.2821,-0.746 0,-1.0307c-0.277,-0.2898 -0.7346,-0.2985 -1.0223,-0.0194l-6.7516,6.7287l-6.6648,-6.7287c-0.1367,-0.1457 -0.3268,-0.2283 -0.5257,-0.2283c-0.1989,0 -0.389,0.0826 -0.5256,0.2283c-0.2501,0.2751 -0.2501,0.6972 0,0.9723l6.6647,6.719l-6.7515,6.7191c-0.2821,0.2847 -0.2821,0.7459 0,1.0307c0.1342,0.1386 0.3189,0.2159 0.5111,0.2139c0.196,0.016 0.3902,-0.0469 0.5402,-0.175l6.7516,-6.7288l6.7516,6.8065c0.1342,0.1387 0.3189,0.216 0.5112,0.214c0.192,0.0009 0.3762,-0.0762 0.5111,-0.214c0.2821,-0.2847 0.2821,-0.7459 0,-1.0307z" fill="black"/></svg>