<svg viewBox="0 0 15 13.5" fill="none" xmlns="http://www.w3.org/2000/svg" xmlns:xlink="http://www.w3.org/1999/xlink" x="0" y="0"><path id="Danger_2" fill-rule="evenodd" clip-rule="evenodd" d="M9.358,1.082l5.452,9.461c0.119,0.282 0.172,0.512 0.187,0.751c0.03,0.557 -0.165,1.099 -0.547,1.516c-0.383,0.415 -0.9,0.66 -1.463,0.69h-10.9778c-0.2325,-0.014 -0.4649,-0.067 -0.6824,-0.149c-1.0873,-0.438 -1.6122,-1.672 -1.1698,-2.741l5.489,-9.535c0.188,-0.335 0.472,-0.624 0.825,-0.81c1.02,-0.566 2.317,-0.194 2.887,0.817zM8.151,7.317c0,0.357 -0.293,0.655 -0.653,0.655c-0.36,0 -0.66,-0.298 -0.66,-0.655v-2.103c0,-0.357 0.3,-0.646 0.66,-0.646c0.36,0 0.653,0.289 0.653,0.646zM7.498,10.513c-0.36,0 -0.66,-0.298 -0.66,-0.654c0,-0.357 0.3,-0.655 0.66,-0.655c0.36,0 0.653,0.291 0.653,0.647c0,0.364 -0.293,0.662 -0.653,0.662z" fill="currentColor"/></svg>