<svg viewBox="0 0 159.3646 159.3646" fill="none" xmlns="http://www.w3.org/2000/svg" xmlns:xlink="http://www.w3.org/1999/xlink" x="0" y="0"><g id="Container_2">
<path id="Ellipse" d="M79.6823,0.0001c11.3427,0 22.5537,2.421 32.8857,7.102c10.331,4.682 19.544,11.514 27.023,20.042c7.478,8.528 13.05,18.554 16.343,29.408c3.292,10.854 4.229,22.285 2.749,33.531c-1.481,11.245 -5.345,22.045 -11.334,31.677c-5.99,9.632 -13.967,17.874 -23.398,24.176c-9.43,6.301 -20.098,10.517 -31.289,12.364c-11.191,1.848 -22.6471,1.285 -33.603,-1.651l12.9616,-48.373c4.0702,1.091 8.3264,1.3 12.4834,0.613c4.158,-0.686 8.121,-2.252 11.625,-4.593c3.503,-2.341 6.467,-5.403 8.692,-8.982c2.225,-3.578 3.661,-7.59 4.211,-11.768c0.55,-4.178 0.201,-8.425 -1.022,-12.457c-1.223,-4.032 -3.293,-7.757 -6.071,-10.925c-2.779,-3.168 -6.201,-5.707 -10.039,-7.446c-3.839,-1.739 -8.004,-2.638 -12.2177,-2.638z" fill="#14B8A6" stroke="white" stroke-width="2.19813"/>
<path id="Ellipse_2" d="M2.7151,59.0591c2.7083,-10.108 7.3809,-19.583 13.751,-27.884c6.3701,-8.302 14.3129,-15.268 23.3751,-20.5l24.9859,43.277c-3.3789,1.951 -6.3405,4.548 -8.7157,7.644c-2.3751,3.095 -4.1174,6.628 -5.1272,10.397z" fill="#FFA918" stroke="white" stroke-width="2.19813"/>
<path id="Ellipse_3" d="M39.8412,10.6751c12.1132,-6.993 25.854,-10.675 39.8411,-10.675v49.656c-5.2707,0 -10.4485,1.387 -15.0131,4.023z" fill="#B115FA" stroke="white" stroke-width="2.19813"/>
<path id="Ellipse_4" d="M59.059,156.6491c-10.1075,-2.708 -19.5825,-7.38 -27.8842,-13.751c-8.3017,-6.37 -15.2674,-14.313 -20.4994,-23.375c-5.232,-9.062 -8.6279,-19.066 -9.9937,-29.44c-1.3658,-10.375 -0.6749,-20.917 2.0334,-31.024l48.2436,12.927c-1.0107,3.772 -1.2686,7.706 -0.7588,11.578c0.5097,3.871 1.777,7.605 3.7295,10.987c1.9526,3.382 4.5521,6.346 7.6503,8.723c3.0981,2.377 6.6341,4.121 10.4061,5.132z" fill="#3B82F6" stroke="white" stroke-width="2.19813"/>
</g></svg>