<svg viewBox="0 0 16.75 14.5625" fill="none" xmlns="http://www.w3.org/2000/svg" xmlns:xlink="http://www.w3.org/1999/xlink" x="0" y="0"><path id="Icon" d="M16.75,5.083c-0.0833,-2.833 -2.3333,-5.083 -5.1667,-5.083c-0.9166,0 -2.3333,0.667 -2.9166,1.75c-0.0834,0.25 -0.4167,0.25 -0.5,0c-0.6667,-1 -2,-1.667 -3,-1.667c-2.75,0 -5.0834,2.25 -5.1667,5v0.167c0,1.417 0.5833,2.75 1.5833,3.75c0,0 0,0 0,0.083c0.0834,0.084 4.0834,3.584 5.9167,5.167c0.5,0.417 1.25,0.417 1.75,0c1.8333,-1.583 5.75,-5.083 5.9167,-5.167c0,0 0,0 0,-0.083c1,-0.917 1.5833,-2.25 1.5833,-3.75z" fill="currentColor"/></svg>