<svg viewBox="0 0 20 19.9999" fill="none" xmlns="http://www.w3.org/2000/svg" xmlns:xlink="http://www.w3.org/1999/xlink" x="0" y="0"><path id="Icon" fill-rule="evenodd" clip-rule="evenodd" d="M7.2695,0.89c1.6264,-1.187 3.8346,-1.187 5.461,0l5.5595,4.11c1.0666,0.775 1.7013,2.011 1.71,3.33v7.44c-0.0582,2.319 -1.9243,4.167 -4.2168,4.23h-11.5664c-2.2925,-0.063 -4.1586,-1.911 -4.2168,-4.23v-7.429c0.0061,-1.325 0.6452,-2.567 1.7197,-3.341zM11.8398,2.1c-1.096,-0.8 -2.5836,-0.8 -3.6796,0l-5.5498,4.1c-0.6919,0.494 -1.1051,1.291 -1.1104,2.141v7.429c0.065,1.563 1.3774,2.781 2.9404,2.73h11.1192c1.5651,0.056 2.8807,-1.165 2.9404,-2.73v-7.44c-0.0053,-0.845 -0.4192,-1.634 -1.1104,-2.119zM14.5,13.751c0.4141,0 0.7497,0.335 0.75,0.749c0,0.414 -0.3358,0.75 -0.75,0.75h-9c-0.4142,0 -0.75,-0.336 -0.75,-0.75c0.0003,-0.414 0.3359,-0.749 0.75,-0.749z" fill="black"/></svg>