<svg viewBox="0 0 23.1004 23.0379" fill="none" xmlns="http://www.w3.org/2000/svg" xmlns:xlink="http://www.w3.org/1999/xlink" x="0" y="0"><g id="Group_2">
<g id="Group_3">
<path id="Vector_17" d="M7.6998,23.0367l-7.186,-2.06c-0.303,-0.087 -0.514,-0.382 -0.514,-0.719v-15.844c0,-0.489 0.431,-0.844 0.871,-0.718l6.829,1.958z" fill="#D0D5DC"/>
<path id="Vector_18" d="M7.6988,23.0367l7.7,-2.208v-17.383l-7.7,2.208z" fill="#E1E4E7"/>
<path id="Vector_19" d="M22.2298,22.7867l-6.829,-1.958v-17.383l7.186,2.06c0.303,0.087 0.514,0.382 0.514,0.719v15.844c0,0.489 -0.432,0.844 -0.871,0.718z" fill="#D0D5DC"/>
</g>
<g id="Group_4">
<path id="Vector_20" d="M15.9038,11.8487c0.654,-0.691 1.839,-1.935 2.889,-2.99c2,-2.011 2.137,-5.443 0.112,-7.429c-0.973,-0.954 -2.239,-1.43 -3.505,-1.43c-1.266,0 -2.531,0.476 -3.504,1.43c-2.027,1.987 -1.89,5.419 0.112,7.43c1.05,1.055 2.236,2.298 2.891,2.99c0.273,0.288 0.731,0.288 1.004,0z" fill="#4582ED"/>
<path id="Vector_21" d="M15.3998,6.4917c0.821,0 1.486,-0.665 1.486,-1.486c0,-0.821 -0.665,-1.486 -1.486,-1.486c-0.82,0 -1.486,0.665 -1.486,1.486c0,0.821 0.666,1.486 1.486,1.486z" fill="#FBFBFB"/>
</g>
</g></svg>