<svg viewBox="0 0 28 28" fill="none" xmlns="http://www.w3.org/2000/svg" xmlns:xlink="http://www.w3.org/1999/xlink" x="0" y="0"><defs><clipPath id="clip1_179_2240">
<rect width="28" height="28" fill="white" transform="translate(0, 0)"/>
</clipPath></defs><g id="🧾 영수증" clip-path="url(#clip1_179_2240)">
<path id="Vector_8" d="M23.932,23.475v-19.866c0,-0.64 -0.519,-1.159 -1.159,-1.159h-17.546c-0.64,0 -1.159,0.519 -1.159,1.159v19.866c0,0.38 0.187,0.737 0.499,0.953l1.325,0.917c0.397,0.274 0.922,0.274 1.318,0l1.165,-0.806c0.397,-0.274 0.922,-0.274 1.318,0l1.165,0.806c0.397,0.274 0.922,0.274 1.318,0l1.164,-0.806c0.397,-0.274 0.922,-0.274 1.318,0l1.165,0.806c0.397,0.274 0.922,0.274 1.318,0l1.165,-0.806c0.397,-0.274 0.922,-0.274 1.318,0l1.165,0.806c0.396,0.274 0.921,0.274 1.318,0l1.324,-0.917c0.313,-0.216 0.499,-0.573 0.499,-0.953z" fill="#E5E8EB"/>
<path id="Vector_9" d="M21.259,19.168h-14.517v0.7h14.517z" fill="#AFB7C0"/>
<path id="Vector_10" d="M21.258,16.629h-1.916v0.7h1.916z" fill="#AFB7C0"/>
<path id="Vector_11" d="M21.258,14.09h-1.916v0.7h1.916z" fill="#AFB7C0"/>
<path id="Vector_12" d="M21.258,11.55h-1.916v0.7h1.916z" fill="#AFB7C0"/>
<path id="Vector_13" d="M14.259,16.629h-7.517v0.7h7.517z" fill="#AFB7C0"/>
<path id="Vector_14" d="M14.259,14.09h-7.517v0.7h7.517z" fill="#AFB7C0"/>
<path id="Vector_15" d="M14.259,11.55h-7.517v0.7h7.517z" fill="#AFB7C0"/>
<path id="Vector_16" d="M21.259,6.472h-14.517v0.7h14.517z" fill="#AFB7C0"/>
</g></svg>