<svg viewBox="0 0 66.0004 11.3363" fill="none" xmlns="http://www.w3.org/2000/svg" xmlns:xlink="http://www.w3.org/1999/xlink" x="0" y="0"><g id="Right Side">
<g id="Battery">
<path id="Rectangle" opacity="0.35" d="M44.58,0.5029h16.448c1.197,0 2.167,0.9704 2.167,2.167v6c0,1.1964 -0.97,2.166 -2.167,2.166h-16.448c-1.196,0 -2.167,-0.9696 -2.167,-2.166v-6l0.011,-0.2217c0.111,-1.0927 1.034,-1.9453 2.156,-1.9453z" stroke="#111111"/>
<path id="Combined Shape" opacity="0.4" d="M64.686,3.6699v4c0.796,-0.3388 1.314,-1.1269 1.314,-2c0,-0.8732 -0.518,-1.6612 -1.314,-2z" fill="#111111"/>
<path id="Rectangle_2" d="M43.893,3.1029c0,-0.6075 0.492,-1.1 1.1,-1.1h15.621c0.608,0 1.1,0.4925 1.1,1.1v5.1333c0,0.6075 -0.492,1.1 -1.1,1.1h-15.621c-0.608,0 -1.1,-0.4925 -1.1,-1.1z" fill="#111111"/>
</g>
<path id="Wifi" fill-rule="evenodd" clip-rule="evenodd" d="M29.371,2.2773c2.194,0.0001 4.304,0.8515 5.894,2.3783c0.119,0.1179 0.311,0.1164 0.429,-0.0033l1.144,-1.1667c0.06,-0.0607 0.093,-0.143 0.093,-0.2285c-0.001,-0.0856 -0.035,-0.1675 -0.095,-0.2275c-4.174,-4.0395 -10.758,-4.0395 -14.931,0c-0.061,0.06 -0.095,0.1418 -0.095,0.2274c-0.001,0.0856 0.032,0.1678 0.092,0.2286l1.145,1.1667c0.118,0.1199 0.309,0.1214 0.429,0.0033c1.59,-1.5269 3.7,-2.3783 5.895,-2.3783zM29.371,6.0729c1.205,0 2.367,0.4525 3.261,1.2697c0.121,0.116 0.311,0.1135 0.429,-0.0057l1.143,-1.1666c0.06,-0.0612 0.094,-0.1442 0.093,-0.2305c-0.001,-0.0863 -0.036,-0.1686 -0.097,-0.2285c-2.721,-2.5564 -6.935,-2.5564 -9.656,0c-0.062,0.0599 -0.097,0.1423 -0.098,0.2286c0,0.0863 0.033,0.1693 0.094,0.2304l1.142,1.1666c0.118,0.1192 0.309,0.1217 0.429,0.0057c0.893,-0.8167 2.055,-1.2691 3.26,-1.2697zM31.661,8.6268c0.001,0.0865 -0.032,0.1699 -0.093,0.2305l-1.978,2.0156c-0.058,0.0593 -0.137,0.0926 -0.219,0.0926c-0.083,0 -0.162,-0.0333 -0.22,-0.0926l-1.978,-2.0156c-0.061,-0.0607 -0.095,-0.1441 -0.093,-0.2306c0.002,-0.0865 0.039,-0.1684 0.103,-0.2264c1.263,-1.0789 3.112,-1.0789 4.375,0c0.064,0.058 0.101,0.14 0.103,0.2265z" fill="#111111"/>
<path id="Mobile Signal" fill-rule="evenodd" clip-rule="evenodd" d="M15.842,0.3359h-0.991c-0.546,0 -0.99,0.4477 -0.99,1v8.6667c0,0.5522 0.444,1 0.99,1h0.991c0.546,0 0.99,-0.4478 0.99,-1v-8.6667c0,-0.5523 -0.444,-1 -0.99,-1zM10.231,2.6692h0.99c0.547,0 0.99,0.4477 0.99,1v6.3334c0,0.5522 -0.443,1 -0.99,1h-0.99c-0.547,0 -0.99,-0.4478 -0.99,-1v-6.3334c0,-0.5523 0.443,-1 0.99,-1zM6.601,5.0026h-0.99c-0.547,0 -0.991,0.4477 -0.991,1v4c0,0.5522 0.444,1 0.991,1h0.99c0.546,0 0.99,-0.4478 0.99,-1v-4c0,-0.5523 -0.444,-1 -0.99,-1zM1.98,7.0026h-0.99c-0.547,0 -0.99,0.4477 -0.99,1v2c0,0.5522 0.443,1 0.99,1h0.99c0.547,0 0.99,-0.4478 0.99,-1v-2c0,-0.5523 -0.443,-1 -0.99,-1z" fill="#111111"/>
</g></svg>