<svg viewBox="0 0 15.84 19.8703" fill="none" xmlns="http://www.w3.org/2000/svg" xmlns:xlink="http://www.w3.org/1999/xlink" x="0" y="0"><g id="Union">
<path fill-rule="evenodd" clip-rule="evenodd" d="M7.889,10.619h0.032c2.928,0 5.309,-2.381 5.309,-5.309c0,-2.928 -2.381,-5.31 -5.309,-5.31c-2.929,0 -5.311,2.382 -5.311,5.307c-0.01,2.92 2.357,5.303 5.279,5.312zM4.038,5.31c0,-2.141 1.742,-3.882 3.883,-3.882c2.14,0 3.881,1.741 3.881,3.882c0,2.14 -1.741,3.882 -3.881,3.882h-0.029c-2.132,-0.008 -3.861,-1.748 -3.854,-3.882z" fill="currentColor"/>
<path fill-rule="evenodd" clip-rule="evenodd" d="M0,16.173c0,3.697 5.962,3.697 7.921,3.697c3.399,0 7.919,-0.381 7.919,-3.677c0,-3.697 -5.96,-3.697 -7.919,-3.697c-3.4,0 -7.921,0.381 -7.921,3.677zM1.5,16.173c0,-1.445 2.16,-2.177 6.421,-2.177c4.26,0 6.419,0.739 6.419,2.197c0,1.445 -2.159,2.177 -6.419,2.177c-4.261,0 -6.421,-0.739 -6.421,-2.197z" fill="currentColor"/>
</g></svg>