<svg viewBox="0 0 22.2 15.2138" fill="none" xmlns="http://www.w3.org/2000/svg" x="0" y="0"><g id="Group">
<path id="Vector_3" d="M17.7155,15.214h-13.3674v-6.925l13.1898,0.889z" fill="currentColor"/>
<path id="Vector_4" d="M12.8335,11.046c3.0503,0 5.523,-2.473 5.523,-5.523c0,-3.05 -2.4727,-5.523 -5.523,-5.523c-3.0502,0 -5.523,2.473 -5.523,5.523c0,3.05 2.4728,5.523 5.523,5.523z" fill="currentColor"/>
<path id="Vector_5" d="M17.517,15.213c2.5863,0 4.683,-2.097 4.683,-4.683c0,-2.586 -2.0967,-4.683 -4.683,-4.683c-2.5864,0 -4.683,2.097 -4.683,4.683c0,2.586 2.0966,4.683 4.683,4.683z" fill="currentColor"/>
<path id="Vector_6" d="M4.3482,15.213c2.4014,0 4.3482,-1.947 4.3482,-4.348c0,-2.402 -1.9468,-4.348 -4.3482,-4.348c-2.4014,0 -4.3482,1.946 -4.3482,4.348c0,2.401 1.9468,4.348 4.3482,4.348z" fill="currentColor"/>
<path id="Vector_7" d="M7.3102,9.883c1.9657,0 3.5592,-1.594 3.5592,-3.56c0,-1.965 -1.5935,-3.559 -3.5592,-3.559c-1.9657,0 -3.5592,1.594 -3.5592,3.559c0,1.966 1.5935,3.56 3.5592,3.56z" fill="currentColor"/>
</g></svg>