<svg viewBox="0 0 24 24" fill="none" xmlns="http://www.w3.org/2000/svg" x="0" y="0"><defs><clipPath id="clip1_110_3052">
<rect width="24" height="24" fill="white" transform="translate(0, 0)"/>
</clipPath></defs><g id="날씨" clip-path="url(#clip1_110_3052)">
<path id="Vector" d="M21.0077,14.068l1.5966,-1.597c0.2604,-0.26 0.2604,-0.682 0,-0.943l-1.5966,-1.596c-0.1686,-0.169 -0.2346,-0.414 -0.1728,-0.645l0.5844,-2.181c0.0954,-0.356 -0.1158,-0.722 -0.4716,-0.817l-2.181,-0.584c-0.2304,-0.062 -0.4098,-0.242 -0.4716,-0.472l-0.5844,-2.181c-0.0954,-0.356 -0.4614,-0.567 -0.8172,-0.472l-2.181,0.585c-0.2304,0.062 -0.4758,-0.004 -0.6444,-0.173l-1.5966,-1.597c-0.2604,-0.26 -0.6828,-0.26 -0.9432,0l-1.5966,1.597c-0.1686,0.169 -0.414,0.235 -0.6444,0.173l-2.181,-0.585c-0.3558,-0.095 -0.7218,0.116 -0.8172,0.472l-0.5844,2.181c-0.0618,0.23 -0.2418,0.41 -0.4716,0.472l-2.181,0.584c-0.3558,0.095 -0.567,0.461 -0.4716,0.817l0.5844,2.181c0.0618,0.231 -0.0042,0.476 -0.1728,0.645l-1.5966,1.596c-0.2604,0.261 -0.2604,0.683 0,0.943l1.5966,1.597c0.1686,0.169 0.2346,0.414 0.1728,0.644l-0.5844,2.181c-0.0954,0.356 0.1158,0.722 0.4716,0.818l2.181,0.584c0.2304,0.062 0.4098,0.242 0.4716,0.472l0.5844,2.181c0.0954,0.355 0.4614,0.567 0.8172,0.471l2.181,-0.584c0.2304,-0.062 0.4758,0.004 0.6444,0.173l1.5966,1.596c0.2604,0.261 0.6828,0.261 0.9432,0l1.5966,-1.596c0.1686,-0.169 0.414,-0.235 0.6444,-0.173l2.181,0.584c0.3558,0.096 0.7218,-0.116 0.8172,-0.471l0.5844,-2.181c0.0618,-0.231 0.2418,-0.41 0.4716,-0.472l2.181,-0.584c0.3558,-0.096 0.567,-0.462 0.4716,-0.818l-0.5844,-2.181c-0.0618,-0.23 0.0042,-0.475 0.1728,-0.644z" fill="#FFCD00"/>
<path id="Vector_2" d="M11.9998,18.344c3.4767,0 6.2952,-2.818 6.2952,-6.295c0,-3.477 -2.8185,-6.295 -6.2952,-6.295c-3.4768,0 -6.2952,2.818 -6.2952,6.295c0,3.477 2.8184,6.295 6.2952,6.295z" fill="#FFAA00"/>
</g></svg>