<svg viewBox="0 0 22.2024 18.2014" fill="none" xmlns="http://www.w3.org/2000/svg" x="0" y="0"><g id="Group_2">
<g id="Group_3">
<path id="Vector_8" d="M11.4055,7.4091l0.919,-0.919c0.15,-0.15 0.15,-0.393 0,-0.543l-0.919,-0.919c-0.098,-0.098 -0.135,-0.239 -0.1,-0.371l0.337,-1.256c0.054,-0.205 -0.067,-0.415 -0.272,-0.47l-1.256,-0.337c-0.133,-0.035 -0.236,-0.139 -0.272,-0.272l-0.336,-1.256c-0.055,-0.204 -0.266,-0.326 -0.471,-0.271l-1.256,0.336c-0.132,0.036 -0.274,-0.002 -0.37,-0.099l-0.92,-0.92c-0.15,-0.15 -0.393,-0.15 -0.543,0l-0.919,0.92c-0.097,0.097 -0.238,0.135 -0.371,0.099l-1.255,-0.336c-0.205,-0.055 -0.416,0.066 -0.471,0.271l-0.336,1.256c-0.036,0.133 -0.14,0.236 -0.272,0.272l-1.256,0.337c-0.205,0.054 -0.326,0.265 -0.272,0.47l0.337,1.256c0.035,0.132 -0.003,0.274 -0.1,0.371l-0.919,0.919c-0.15,0.15 -0.15,0.393 0,0.543l0.919,0.919c0.097,0.097 0.135,0.238 0.1,0.371l-0.337,1.256c-0.054,0.204 0.067,0.415 0.272,0.47l1.256,0.337c0.132,0.035 0.236,0.139 0.272,0.271l0.336,1.256c0.055,0.205 0.265,0.327 0.471,0.272l1.255,-0.337c0.133,-0.035 0.275,0.003 0.371,0.1l0.919,0.919c0.15,0.15 0.393,0.15 0.543,0l0.92,-0.919c0.097,-0.097 0.238,-0.135 0.37,-0.1l1.256,0.337c0.205,0.055 0.415,-0.067 0.471,-0.272l0.336,-1.256c0.036,-0.132 0.139,-0.235 0.272,-0.271l1.256,-0.337c0.204,-0.055 0.326,-0.265 0.272,-0.47l-0.337,-1.256c-0.035,-0.133 0.002,-0.274 0.1,-0.371z" fill="#FFCD00"/>
<path id="Vector_9" d="M6.2195,9.8711c2.001,0 3.624,-1.623 3.624,-3.624c0,-2.002 -1.623,-3.624 -3.624,-3.624c-2.002,0 -3.624,1.622 -3.624,3.624c0,2.001 1.622,3.624 3.624,3.624z" fill="#FFAA00"/>
</g>
<g id="Group_4">
<path id="Vector_10" d="M17.7595,18.2021h-13.241v-6.86l13.065,0.881z" fill="#E5E8EB"/>
<path id="Vector_11" d="M12.9235,14.0731c3.021,0 5.471,-2.449 5.471,-5.47c0,-3.022 -2.45,-5.471 -5.471,-5.471c-3.022,0 -5.471,2.449 -5.471,5.471c0,3.021 2.449,5.47 5.471,5.47z" fill="#E5E8EB"/>
<path id="Vector_12" d="M17.5625,18.2011c2.563,0 4.64,-2.077 4.64,-4.639c0,-2.562 -2.077,-4.639 -4.64,-4.639c-2.562,0 -4.639,2.077 -4.639,4.639c0,2.562 2.077,4.639 4.639,4.639z" fill="#E5E8EB"/>
<path id="Vector_13" d="M4.5185,18.2011c2.379,0 4.308,-1.928 4.308,-4.307c0,-2.379 -1.929,-4.308 -4.308,-4.308c-2.379,0 -4.307,1.929 -4.307,4.308c0,2.379 1.928,4.307 4.307,4.307z" fill="#E5E8EB"/>
<path id="Vector_14" d="M7.4525,12.9211c1.947,0 3.526,-1.579 3.526,-3.526c0,-1.947 -1.579,-3.525 -3.526,-3.525c-1.947,0 -3.525,1.578 -3.525,3.525c0,1.947 1.578,3.526 3.525,3.526z" fill="#E5E8EB"/>
</g>
</g></svg>