<svg viewBox="0 0 24 24" fill="none" xmlns="http://www.w3.org/2000/svg" x="0" y="0"><defs><clipPath id="clip5_110_3052">
<rect width="24" height="24" fill="white" transform="translate(-0.0004999999999881766, 0)"/>
</clipPath></defs><g id="날씨_5" clip-path="url(#clip5_110_3052)">
<path id="Vector_20" d="M21.0075,14.068l1.597,-1.597c0.26,-0.26 0.26,-0.682 0,-0.943l-1.597,-1.596c-0.168,-0.169 -0.234,-0.414 -0.173,-0.645l0.585,-2.181c0.095,-0.356 -0.116,-0.722 -0.472,-0.817l-2.181,-0.584c-0.23,-0.062 -0.41,-0.242 -0.471,-0.472l-0.585,-2.181c-0.095,-0.356 -0.461,-0.567 -0.817,-0.472l-2.181,0.585c-0.23,0.062 -0.476,-0.004 -0.644,-0.173l-1.597,-1.597c-0.26,-0.26 -0.683,-0.26 -0.943,0l-1.597,1.597c-0.168,0.169 -0.414,0.235 -0.644,0.173l-2.181,-0.585c-0.356,-0.095 -0.722,0.116 -0.817,0.472l-0.585,2.181c-0.062,0.23 -0.242,0.41 -0.471,0.472l-2.181,0.584c-0.356,0.095 -0.567,0.461 -0.472,0.817l0.584,2.181c0.062,0.231 -0.004,0.476 -0.172,0.645l-1.597,1.596c-0.26,0.261 -0.26,0.683 0,0.943l1.597,1.597c0.168,0.169 0.234,0.414 0.172,0.644l-0.584,2.181c-0.095,0.356 0.116,0.722 0.472,0.818l2.181,0.584c0.23,0.062 0.409,0.242 0.471,0.472l0.585,2.181c0.095,0.355 0.461,0.567 0.817,0.471l2.181,-0.584c0.23,-0.062 0.476,0.004 0.644,0.173l1.597,1.596c0.26,0.261 0.683,0.261 0.943,0l1.597,-1.596c0.168,-0.169 0.414,-0.235 0.644,-0.173l2.181,0.584c0.356,0.096 0.722,-0.116 0.817,-0.471l0.585,-2.181c0.061,-0.231 0.241,-0.41 0.471,-0.472l2.181,-0.584c0.356,-0.096 0.567,-0.462 0.472,-0.818l-0.585,-2.181c-0.061,-0.23 0.005,-0.475 0.173,-0.644z" fill="#FFCD00"/>
<path id="Vector_21" d="M11.9995,18.344c3.477,0 6.295,-2.818 6.295,-6.295c0,-3.477 -2.818,-6.295 -6.295,-6.295c-3.476,0 -6.295,2.818 -6.295,6.295c0,3.477 2.819,6.295 6.295,6.295z" fill="#FFAA00"/>
</g></svg>