<svg viewBox="0 0 24 24" fill="none" xmlns="http://www.w3.org/2000/svg" x="0" y="0"><defs><clipPath id="clip7_110_3052">
<rect width="24" height="24" fill="white" transform="translate(0, 0)"/>
</clipPath></defs><g id="날씨_7" clip-path="url(#clip7_110_3052)">
<g id="Group_6">
<g id="Group_7">
<path id="Vector_24" d="M12.262,7.642l0.795,-0.795c0.13,-0.13 0.13,-0.341 0,-0.47l-0.795,-0.795c-0.084,-0.084 -0.116,-0.207 -0.086,-0.321l0.291,-1.086c0.048,-0.177 -0.057,-0.36 -0.234,-0.407l-1.086,-0.291c-0.115,-0.031 -0.204,-0.12 -0.235,-0.235l-0.291,-1.086c-0.047,-0.177 -0.23,-0.282 -0.407,-0.234l-1.086,0.291c-0.114,0.03 -0.237,-0.002 -0.321,-0.086l-0.795,-0.795c-0.129,-0.13 -0.34,-0.13 -0.47,0l-0.795,0.795c-0.084,0.084 -0.206,0.116 -0.321,0.086l-1.086,-0.291c-0.177,-0.048 -0.359,0.057 -0.406,0.234l-0.291,1.086c-0.031,0.115 -0.12,0.204 -0.235,0.235l-1.086,0.291c-0.177,0.047 -0.283,0.23 -0.235,0.407l0.291,1.086c0.031,0.114 -0.001,0.237 -0.085,0.321l-0.795,0.795c-0.13,0.129 -0.13,0.34 0,0.47l0.795,0.795c0.084,0.084 0.116,0.206 0.085,0.321l-0.291,1.086c-0.047,0.177 0.058,0.359 0.235,0.406l1.086,0.291c0.115,0.031 0.204,0.12 0.235,0.235l0.291,1.086c0.047,0.177 0.229,0.283 0.406,0.235l1.086,-0.291c0.115,-0.031 0.237,0.001 0.321,0.085l0.795,0.795c0.13,0.13 0.341,0.13 0.47,0l0.795,-0.795c0.084,-0.084 0.207,-0.116 0.321,-0.085l1.086,0.291c0.177,0.047 0.36,-0.058 0.407,-0.235l0.291,-1.086c0.031,-0.115 0.12,-0.204 0.235,-0.235l1.086,-0.291c0.177,-0.047 0.282,-0.229 0.234,-0.406l-0.291,-1.086c-0.03,-0.115 0.002,-0.237 0.086,-0.321z" fill="#FFCD00"/>
<path id="Vector_25" d="M7.777,9.771c1.731,0 3.134,-1.403 3.134,-3.134c0,-1.731 -1.403,-3.135 -3.134,-3.135c-1.731,0 -3.134,1.404 -3.134,3.135c0,1.731 1.403,3.134 3.134,3.134z" fill="#FFAA00"/>
</g>
<g id="Group_8">
<path id="Vector_26" d="M17.758,16.976h-11.452v-5.933l11.299,0.762z" fill="#E5E8EB"/>
<path id="Vector_27" d="M13.575,13.405c2.614,0 4.732,-2.118 4.732,-4.732c0,-2.613 -2.118,-4.731 -4.732,-4.731c-2.613,0 -4.731,2.118 -4.731,4.731c0,2.614 2.118,4.732 4.731,4.732z" fill="#E5E8EB"/>
<path id="Vector_28" d="M17.587,16.976c2.216,0 4.013,-1.797 4.013,-4.013c0,-2.216 -1.797,-4.012 -4.013,-4.012c-2.215,0 -4.012,1.796 -4.012,4.012c0,2.216 1.797,4.013 4.012,4.013z" fill="#E5E8EB"/>
<path id="Vector_29" d="M6.305,16.976c2.058,0 3.726,-1.668 3.726,-3.726c0,-2.057 -1.668,-3.725 -3.726,-3.725c-2.057,0 -3.725,1.668 -3.725,3.725c0,2.058 1.668,3.726 3.725,3.726z" fill="#E5E8EB"/>
<path id="Vector_30" d="M8.843,12.408c1.684,0 3.049,-1.365 3.049,-3.049c0,-1.684 -1.365,-3.049 -3.049,-3.049c-1.684,0 -3.049,1.365 -3.049,3.049c0,1.684 1.365,3.049 3.049,3.049z" fill="#E5E8EB"/>
</g>
</g>
<path id="Vector_31" d="M10.531,21.071c0.127,-0.484 1.142,-1.694 1.651,-2.278c0.12,-0.138 0.344,-0.079 0.381,0.099c0.158,0.759 0.451,2.311 0.324,2.796c-0.169,0.65 -0.835,1.04 -1.486,0.87c-0.65,-0.17 -1.04,-0.836 -0.87,-1.487z" fill="#88C5FF"/>
<path id="Vector_32" d="M16.009,21.071c0.126,-0.484 1.142,-1.694 1.651,-2.278c0.119,-0.138 0.344,-0.079 0.38,0.099c0.158,0.759 0.452,2.311 0.325,2.796c-0.17,0.65 -0.835,1.04 -1.486,0.87c-0.651,-0.17 -1.041,-0.836 -0.87,-1.487z" fill="#88C5FF"/>
<path id="Vector_33" d="M5.054,21.071c0.126,-0.484 1.141,-1.694 1.651,-2.278c0.119,-0.138 0.344,-0.079 0.38,0.099c0.158,0.759 0.451,2.311 0.325,2.796c-0.17,0.65 -0.835,1.04 -1.486,0.87c-0.651,-0.17 -1.041,-0.836 -0.87,-1.487z" fill="#88C5FF"/>
</g></svg>