<svg width="24" height="24" viewBox="0 0 24 24" fill="none" xmlns="http://www.w3.org/2000/svg">
<g clip-path="url(#clip0_110_1568)">
<path d="M18.6154 19.0067H5.24805V12.0815L18.4378 12.9713L18.6154 19.0067Z" fill="#E5E8EB"/>
<path d="M13.7334 14.8392C16.7837 14.8392 19.2564 12.3665 19.2564 9.31621C19.2564 6.26594 16.7837 3.79321 13.7334 3.79321C10.6832 3.79321 8.21045 6.26594 8.21045 9.31621C8.21045 12.3665 10.6832 14.8392 13.7334 14.8392Z" fill="#E5E8EB"/>
<path d="M18.4169 19.0061C21.0032 19.0061 23.0999 16.9095 23.0999 14.3231C23.0999 11.7368 21.0032 9.64014 18.4169 9.64014C15.8305 9.64014 13.7339 11.7368 13.7339 14.3231C13.7339 16.9095 15.8305 19.0061 18.4169 19.0061Z" fill="#E5E8EB"/>
<path d="M5.2481 19.0062C7.64955 19.0062 9.5963 17.0595 9.5963 14.658C9.5963 12.2566 7.64955 10.3098 5.2481 10.3098C2.84666 10.3098 0.899902 12.2566 0.899902 14.658C0.899902 17.0595 2.84666 19.0062 5.2481 19.0062Z" fill="#E5E8EB"/>
<path d="M8.21008 13.6758C10.1758 13.6758 11.7693 12.0823 11.7693 10.1166C11.7693 8.15088 10.1758 6.55737 8.21008 6.55737C6.24439 6.55737 4.65088 8.15088 4.65088 10.1166C4.65088 12.0823 6.24439 13.6758 8.21008 13.6758Z" fill="#E5E8EB"/>
</g>
<defs>
<clipPath id="clip0_110_1568">
<rect width="24" height="24" fill="white"/>
</clipPath>
</defs>
</svg>
